<?xml version="1.0" standalone="no"?>
<!DOCTYPE svg PUBLIC "-//W3C//DTD SVG 20010904//EN"
 "http://www.w3.org/TR/2001/REC-SVG-20010904/DTD/svg10.dtd">
<svg version="1.0" xmlns="http://www.w3.org/2000/svg"
 width="80.000000pt" height="80.000000pt" viewBox="0 0 80.000000 80.000000"
 preserveAspectRatio="xMidYMid meet">
<metadata>
Created by potrace 1.14, written by Peter Selinger 2001-2017
</metadata>
<g transform="translate(0.000000,80.000000) scale(0.100000,-0.100000)"
fill="#000000" stroke="none">
<path d="M163 690 c-59 -35 -63 -55 -63 -295 0 -326 -9 -318 315 -313 l215 3
32 33 33 32 3 230 c3 255 0 273 -61 310 -29 18 -51 20 -237 20 -186 0 -208 -2
-237 -20z m484 -33 l28 -27 0 -189 c0 -172 -2 -191 -19 -210 -22 -24 -15 -41
9 -21 13 10 15 9 15 -8 0 -34 -20 -68 -50 -85 -24 -14 -59 -17 -223 -17 -112
0 -207 5 -225 11 -30 10 -62 58 -62 94 0 14 3 15 13 6 22 -17 29 0 10 22 -16
17 -18 42 -18 207 0 174 1 190 20 210 11 12 29 26 40 31 11 4 113 7 227 6
l208 -2 27 -28z"/>
<path d="M256 438 c0 -82 3 -103 14 -103 10 0 14 12 14 43 l0 42 49 0 c34 0
47 4 44 13 -2 7 -21 12 -49 12 l-46 -1 2 36 c2 37 -1 36 84 39 12 1 22 6 22
11 0 6 -29 10 -67 10 l-68 0 1 -102z"/>
<path d="M439 538 c-4 -23 -10 -118 -6 -118 2 0 20 6 38 14 28 12 37 12 52 2
20 -15 23 -56 5 -74 -19 -19 -56 -14 -70 8 -16 25 -28 26 -28 1 0 -27 24 -43
65 -44 42 -1 62 16 71 60 5 26 1 37 -20 58 -22 22 -33 26 -60 21 -32 -6 -32
-5 -28 24 4 28 6 30 50 27 29 -1 47 2 49 11 4 9 -12 12 -56 12 -34 0 -61 -1
-62 -2z"/>
<path d="M175 190 c-3 -5 -1 -10 4 -10 6 0 11 5 11 10 0 6 -2 10 -4 10 -3 0
-8 -4 -11 -10z"/>
<path d="M610 190 c0 -5 5 -10 11 -10 5 0 7 5 4 10 -3 6 -8 10 -11 10 -2 0 -4
-4 -4 -10z"/>
<path d="M210 180 c0 -5 5 -10 10 -10 6 0 10 5 10 10 0 6 -4 10 -10 10 -5 0
-10 -4 -10 -10z"/>
<path d="M250 180 c0 -5 5 -10 10 -10 6 0 10 5 10 10 0 6 -4 10 -10 10 -5 0
-10 -4 -10 -10z"/>
<path d="M290 180 c0 -5 5 -10 10 -10 6 0 10 5 10 10 0 6 -4 10 -10 10 -5 0
-10 -4 -10 -10z"/>
<path d="M330 180 c0 -5 5 -10 10 -10 6 0 10 5 10 10 0 6 -4 10 -10 10 -5 0
-10 -4 -10 -10z"/>
<path d="M370 179 c0 -5 5 -7 10 -4 6 3 10 8 10 11 0 2 -4 4 -10 4 -5 0 -10
-5 -10 -11z"/>
<path d="M410 180 c0 -5 5 -10 10 -10 6 0 10 5 10 10 0 6 -4 10 -10 10 -5 0
-10 -4 -10 -10z"/>
<path d="M450 180 c0 -5 5 -10 10 -10 6 0 10 5 10 10 0 6 -4 10 -10 10 -5 0
-10 -4 -10 -10z"/>
<path d="M490 179 c0 -5 5 -7 10 -4 6 3 10 8 10 11 0 2 -4 4 -10 4 -5 0 -10
-5 -10 -11z"/>
<path d="M530 179 c0 -5 5 -7 10 -4 6 3 10 8 10 11 0 2 -4 4 -10 4 -5 0 -10
-5 -10 -11z"/>
<path d="M570 179 c0 -5 5 -7 10 -4 6 3 10 8 10 11 0 2 -4 4 -10 4 -5 0 -10
-5 -10 -11z"/>
</g>
</svg>
